{
  "title": "Tu.Veux.ou.tu.Veux.Pas.2014.720p.BRRip.x264.AC3.HORiZON-ArtSubs",
  "uid": 12086081,
  "size": 1750070249,
  "categoryP": "video",
  "categoryS": "movies",
  "magnet": "?xt=urn:btih:193c61e0fc1963006b23b9ec5c3465b47a50db20&amp;dn=Tu.Veux.ou.tu.Veux.Pas.2014.720p.BRRip.x264.AC3.HORiZON-ArtSubs&amp;tr=udp%3A%2F%2Ftracker.openbittorrent.com%3A80&amp;tr=udp%3A%2F%2Fopen.demonii.com%3A1337&amp;tr=udp%3A%2F%2Ftracker.coppersurfer.tk%3A6969&amp;tr=udp%3A%2F%2Fexodus.desync.com%3A6969",
  "seeders": 45,
  "leechers": 2,
  "uploader": "noriegaRJ",
  "files": 1,
  "time": 1435913684,
  "description": "Title: Tu veux... ou tu veux pas? aka Sex, Love &amp; Therapy\n\n\nIMDB Link:                                         &lt;a href=&quot;\nhttp://www.imdb.com/title/tt2978426/&quot; rel=&quot;nofollow&quot; target=&quot;_NEW&quot;&gt;\nhttp://www.imdb.com/title/tt2978426/&lt;/a&gt;\n\n\nPlot: Lambert is an addict. A sex addict. It once cost him his pilot job, but he's now trying to work it out through a support group and a new career as couples therapist. Judith has no problem. She's a nymphomaniac who's delighted to sleep with everyone she likes and particularly the men she works with. Until it gets her fired. So now she's crashing at her grumpy old uncle's home, until she gets back on her feet. When Judith applies for a job at Lambert's practice, they are instantly attracted to each other. But the more she tries to seduce him, the more he wants to build a healthy relationship with her... one not based on sex. It's an uphill battle every day, to keep her from jumping his bones!\n\n\n\nGeneral\nComplete name                            : Tu.Veux.ou.tu.Veux.Pas.2014.720p.BRRip.x264.AC3.HORiZON-ArtSubs\nFormat                                   : Matroska\nFormat version                           : Version 2\nFile size                                : 1.63 GiB\nDuration                                 : 1h 27mn\nOverall bit rate                         : 2 668 Kbps\nWriting application                      : HandBrake 0.9.5\nWriting library                          : libmkv 0.6.4.1\n\nVideo\nID                                       : 1\nFormat                                   : AVC\nFormat/Info                              : Advanced Video Codec\nFormat profile                           : &lt;a class=&quot;__cf_email__&quot; href=&quot;/cdn-cgi/l/email-protection&quot; data-cfemail=&quot;f8b0919f90b8b4cbd6c9&quot;&gt;[email&amp;#160;protected]&lt;/a&gt;&lt;script data-cfhash='f9e31' type=&quot;text/javascript&quot;&gt;\n/* &lt;![CDATA[ */!function(){try{var t=&quot;currentScript&quot;in document?document.currentScript:function(){for(var t=document.getElementsByTagName(&quot;script&quot;),e=t.length;e--;)if(t[e].getAttribute(&quot;data-cfhash&quot;))return t[e]}();if(t&amp;&amp;t.previousSibling){var e,r,n,i,c=t.previousSibling,a=c.getAttribute(&quot;data-cfemail&quot;);if(a){for(e=&quot;&quot;,r=parseInt(a.substr(0,2),16),n=2;a.length-n;n+=2)i=parseInt(a.substr(n,2),16)^r,e+=String.fromCharCode(i);e=document.createTextNode(e),c.parentNode.replaceChild(e,c)}t.parentNode.removeChild(t);}}catch(u){}}()/* ]]&gt; */&lt;/script&gt;\nFormat settings, CABAC                   : Yes\nFormat settings, ReFrames                : 4 frames\nCodec ID                                 : V_MPEG4/ISO/AVC\nDuration                                 : 1h 27mn\nBit rate                                 : 2 074 Kbps\nWidth                                    : 1 280 pixels\nHeight                                   : 528 pixels\nDisplay aspect ratio                     : 2.40:1\nOriginal display aspect ratio            : 2.40:1\nFrame rate mode                          : Constant\nFrame rate                               : 24.000 fps\nColor space                              : YUV\nChroma subsampling                       : 4:2:0\nBit depth                                : 8 bits\nScan type                                : Progressive\nBits/(Pixel*Frame)                       : 0.128\nStream size                              : 1.21 GiB (74%)\nWriting library                          : x264 core 112\nLanguage                                 : English\nDefault                                  : Yes\nForced                                   : No\nColor primaries                          : BT.709\nTransfer characteristics                 : BT.709\nMatrix coefficients                      : BT.709\n\nAudio\nID                                       : 2\nFormat                                   : AC-3\nFormat/Info                              : Audio Coding 3\nMode extension                           : CM (complete main)\nFormat settings, Endianness              : Big\nCodec ID                                 : A_AC3\nDuration                                 : 1h 27mn\nBit rate mode                            : Constant\nBit rate                                 : 640 Kbps\nChannel count                            : 6 channels\nChannel positions                        : Front: L C R, Side: L R, LFE\nSampling rate                            : 48.0 KHz\nBit depth                                : 16 bits\nCompression mode                         : Lossy\nStream size                              : 400 MiB (24%)\nLanguage                                 : French\nDefault                                  : Yes\nForced                                   : No\n\n\n\nThanks to those helping me seed. Leechers remember, the community depends on you. If nobody shares, the freebies go away. Remember, the only reason you can download this free movie is because others are generous enough to keep sharing it with you. If nobody shares, everybody loses, so even if its for an extra hour or two after you get it, remember, others want to see it too, and they can't without you.\n\n\nSEE MY OTHERS UPLOADS:                                                                 &lt;a href=&quot;\nhttp://thepiratebay.se/user/noriegaRJ&quot; rel=&quot;nofollow&quot; target=&quot;_NEW&quot;&gt;\nhttp://thepiratebay.se/user/noriegaRJ&lt;/a&gt;\n\nAND SEE THIS ANOTHERS UPLOADS FROM &quot;HORiZON-ArtSubs&quot;:                 &lt;a href=&quot;\nhttp://thepiratebay.se/user/artsubs&quot; rel=&quot;nofollow&quot; target=&quot;_NEW&quot;&gt;\nhttp://thepiratebay.se/user/artsubs&lt;/a&gt;                 &lt;a href=&quot;\nhttp://thepiratebay.se/user/lletaif&quot; rel=&quot;nofollow&quot; target=&quot;_NEW&quot;&gt;\nhttp://thepiratebay.se/user/lletaif&lt;/a&gt;",
  "parsed": {
    "xt": "urn:btih:193c61e0fc1963006b23b9ec5c3465b47a50db20",
    "dn": "Tu.Veux.ou.tu.Veux.Pas.2014.720p.BRRip.x264.AC3.HORiZON-ArtSubs",
    "tr": [
      "udp://exodus.desync.com:6969",
      "udp://open.demonii.com:1337",
      "udp://tracker.coppersurfer.tk:6969",
      "udp://tracker.openbittorrent.com:80"
    ],
    "infoHash": "193c61e0fc1963006b23b9ec5c3465b47a50db20",
    "infoHashBuffer": {
      "type": "Buffer",
      "data": [
        25,
        60,
        97,
        224,
        252,
        25,
        99,
        0,
        107,
        35,
        185,
        236,
        92,
        52,
        101,
        180,
        122,
        80,
        219,
        32
      ]
    },
    "name": "Tu.Veux.ou.tu.Veux.Pas.2014.720p.BRRip.x264.AC3.HORiZON-ArtSubs",
    "announce": [
      "udp://exodus.desync.com:6969",
      "udp://open.demonii.com:1337",
      "udp://tracker.coppersurfer.tk:6969",
      "udp://tracker.openbittorrent.com:80"
    ],
    "urlList": []
  },
  "previous": 15,
  "peers": 3,
  "last_updated": "2016-12-26T17:38:50.642Z"
}